<svg width="28" height="35" viewBox="0 0 28 35" fill="none" xmlns="http://www.w3.org/2000/svg">
<path d="M14 35C13.0715 34.9954 12.1821 34.6258 11.5239 33.9709C10.8658 33.316 10.4917 32.4284 10.4825 31.5H17.4825C17.4862 31.9679 17.397 32.4319 17.22 32.865C16.9937 33.3843 16.6472 33.8424 16.209 34.2014C15.7709 34.5604 15.2536 34.8102 14.7 34.93H14.6177C14.4144 34.9724 14.2076 34.9958 14 35ZM28 29.75H0V26.25L3.5 24.5V14.875C3.4078 12.406 3.96539 9.95597 5.117 7.77C5.68371 6.76772 6.4565 5.89699 7.38439 5.21526C8.31227 4.53352 9.37416 4.05627 10.5 3.815V0H17.5V3.815C22.0132 4.8895 24.5 8.8165 24.5 14.875V24.5L28 26.25V29.75Z" fill="#3DDEA5"/>
</svg>
